<svg width="25" height="24" viewBox="0 0 25 24" fill="none" xmlns="http://www.w3.org/2000/svg">
<path d="M4.5 20C3.95 20 3.47933 19.8043 3.088 19.413C2.696 19.021 2.5 18.55 2.5 18V6C2.5 5.45 2.696 4.97933 3.088 4.588C3.47933 4.196 3.95 4 4.5 4H20.5C21.05 4 21.521 4.196 21.913 4.588C22.3043 4.97933 22.5 5.45 22.5 6V18C22.5 18.55 22.3043 19.021 21.913 19.413C21.521 19.8043 21.05 20 20.5 20H4.5ZM12.5 12.825C12.5833 12.825 12.6707 12.8123 12.762 12.787C12.854 12.7623 12.9417 12.725 13.025 12.675L20.1 8.25C20.2333 8.16667 20.3333 8.06267 20.4 7.938C20.4667 7.81267 20.5 7.675 20.5 7.525C20.5 7.19167 20.3583 6.94167 20.075 6.775C19.7917 6.60833 19.5 6.61667 19.2 6.8L12.5 11L5.8 6.8C5.5 6.61667 5.20833 6.61233 4.925 6.787C4.64167 6.96233 4.5 7.20833 4.5 7.525C4.5 7.69167 4.53333 7.83733 4.6 7.962C4.66667 8.08733 4.76667 8.18333 4.9 8.25L11.975 12.675C12.0583 12.725 12.146 12.7623 12.238 12.787C12.3293 12.8123 12.4167 12.825 12.5 12.825Z" fill="#E0115F"/>
</svg>
