<svg width="40" height="40" viewBox="0 0 40 40" fill="none" xmlns="http://www.w3.org/2000/svg">
<path d="M5 5H35V35H5V5ZM12.8833 30.0667C13.55 31.4833 14.8667 32.65 17.1167 32.65C19.6167 32.65 21.3333 31.3167 21.3333 28.4V18.7667H18.5V28.3333C18.5 29.7667 17.9167 30.1333 17 30.1333C16.0333 30.1333 15.6333 29.4667 15.1833 28.6833L12.8833 30.0667ZM22.85 29.7667C23.6833 31.4 25.3667 32.65 28 32.65C30.6667 32.65 32.6667 31.2667 32.6667 28.7167C32.6667 26.3667 31.3167 25.3167 28.9167 24.2833L28.2167 23.9833C27 23.4667 26.4833 23.1167 26.4833 22.2833C26.4833 21.6 27 21.0667 27.8333 21.0667C28.6333 21.0667 29.1667 21.4167 29.65 22.2833L31.8333 20.8333C30.9167 19.2333 29.6167 18.6167 27.8333 18.6167C25.3167 18.6167 23.7 20.2167 23.7 22.3333C23.7 24.6333 25.05 25.7167 27.0833 26.5833L27.7833 26.8833C29.0833 27.45 29.85 27.8 29.85 28.7667C29.85 29.5667 29.1 30.15 27.9333 30.15C26.55 30.15 25.75 29.4333 25.15 28.4333L22.85 29.7667Z" fill="#E0115F"/>
</svg>
