<svg width="40" height="40" viewBox="0 0 40 40" fill="none" xmlns="http://www.w3.org/2000/svg">
<path d="M20 3.08337C19.55 3.08337 19.0833 3.20004 18.7 3.41671L6.3 10.5834C5.5 11.05 5 11.9167 5 12.85V27.15C5 28.0834 5.5 28.95 6.3 29.4167L9.55 31.2834C11.1333 32.05 11.6667 32.0667 12.4 32.0667C14.7333 32.0667 16.0833 30.65 16.0833 28.1834V14.0667C16.0833 13.8667 15.9167 13.7 15.7167 13.7H14.1667C13.95 13.7 13.7833 13.8667 13.7833 14.0667V28.1834C13.7833 29.2834 12.65 30.3667 10.8333 29.45L7.41667 27.5C7.3 27.4167 7.23333 27.2834 7.23333 27.15V12.85C7.23333 12.7 7.3 12.5667 7.41667 12.5L19.8167 5.35004C19.9167 5.28337 20.0833 5.28337 20.1833 5.35004L32.5833 12.5C32.7 12.5667 32.7667 12.7 32.7667 12.85V27.15C32.7667 27.2834 32.7 27.4167 32.5833 27.5L20.1833 34.65C20.0833 34.7167 19.9167 34.7167 19.8 34.65L16.6667 32.75C16.5333 32.7 16.4 32.6834 16.3167 32.7334C15.4333 33.2334 15.2667 33.3334 14.45 33.5834C14.25 33.65 13.9333 33.7667 14.5667 34.1167L18.7 36.5667C19.1 36.8 19.5333 36.9167 20 36.9167C20.4667 36.9167 20.9 36.8 21.3 36.5667L33.7 29.4167C34.5 28.95 35 28.0834 35 27.15V12.85C35 11.9167 34.5 11.05 33.7 10.5834L21.3 3.41671C20.9167 3.20004 20.4667 3.08337 20 3.08337ZM23.3333 13.3334C19.8 13.3334 17.6833 14.8167 17.6833 17.3167C17.6833 20 19.7833 20.7834 23.1833 21.1167C27.2333 21.5167 27.55 22.1167 27.55 22.9167C27.55 24.3 26.4333 24.8834 23.8333 24.8834C20.5333 24.8834 19.8333 24.0667 19.5833 22.4334C19.55 22.2667 19.4 22.1334 19.2167 22.1334H17.6167C17.4167 22.1334 17.2667 22.2834 17.2667 22.5C17.2667 24.5667 18.4 27.0667 23.8333 27.0667C27.75 27.0667 30 25.5167 30 22.8167C30 20.1334 28.2 19.4334 24.3833 18.9167C20.5333 18.4167 20.15 18.15 20.15 17.25C20.15 16.5 20.4833 15.5 23.3333 15.5C25.8333 15.5 26.8167 16.05 27.2 17.7667C27.2333 17.9334 27.3833 18.05 27.55 18.05H29.1667C29.25 18.05 29.35 18.0167 29.4167 17.9334C29.4833 17.8667 29.5333 17.7667 29.5 17.6667C29.2667 14.7 27.3 13.3334 23.3333 13.3334Z" fill="#E0115F"/>
</svg>
