<svg width="40" height="40" viewBox="0 0 40 40" fill="none" xmlns="http://www.w3.org/2000/svg">
<path d="M31.9 12.5C33.1642 12.5 34.3766 13.0022 35.2705 13.8961C36.1644 14.79 36.6666 16.0024 36.6666 17.2666V23.5666C36.6666 24.8308 36.1644 26.0432 35.2705 26.9372C34.3766 27.8311 33.1642 28.3333 31.9 28.3333H20C20 28.9833 20.5333 29.9333 21.1833 29.9333H28.3333V32.7333C28.3333 33.9975 27.8311 35.2099 26.9372 36.1038C26.0433 36.9978 24.8308 37.5 23.5666 37.5H16.4333C15.1691 37.5 13.9567 36.9978 13.0628 36.1038C12.1688 35.2099 11.6666 33.9975 11.6666 32.7333V26.4833C11.6666 23.85 13.8 21.7333 16.4333 21.7333H25.1833C27.8166 21.7333 29.9333 19.6 29.9333 16.9666V12.5H31.9ZM24.7666 32.15C24.1 32.15 23.5666 32.65 23.5666 33.6333C23.5666 34.6166 24.1 34.8166 24.7666 34.8166C24.922 34.8166 25.0759 34.786 25.2195 34.7265C25.3631 34.6671 25.4935 34.5799 25.6034 34.47C25.7133 34.3602 25.8004 34.2297 25.8599 34.0861C25.9194 33.9426 25.95 33.7887 25.95 33.6333C25.95 32.65 25.4166 32.15 24.7666 32.15ZM8.09998 29.1666C5.46665 29.1666 3.33331 27.0333 3.33331 24.4V18.1C3.33331 15.4666 5.46665 13.3333 8.09998 13.3333H20C20 12.6833 19.4666 11.7333 18.8166 11.7333H11.6666V8.93329C11.6666 6.29996 13.8 4.16663 16.4333 4.16663H23.5666C26.2 4.16663 28.3333 6.29996 28.3333 8.93329V15.1833C28.3333 17.8166 26.2 19.9333 23.5666 19.9333H14.8166C12.1833 19.9333 10.0666 22.0666 10.0666 24.7V29.1666H8.09998ZM15.2333 9.51663C15.9 9.51663 16.4333 9.01663 16.4333 8.03329C16.4333 7.04996 15.9 6.84996 15.2333 6.84996C14.5833 6.84996 14.05 7.04996 14.05 8.03329C14.05 9.01663 14.5833 9.51663 15.2333 9.51663Z" fill="#E0115F"/>
</svg>
