<svg width="40" height="40" viewBox="0 0 40 40" fill="none" xmlns="http://www.w3.org/2000/svg">
<path d="M20 16.8499C21.7166 16.8499 23.1166 18.2499 23.1166 19.9999C23.1166 21.6666 21.7166 23.0833 20 23.0833C18.2833 23.0833 16.8833 21.6666 16.8833 19.9999C16.8833 18.2499 18.2833 16.8499 20 16.8499ZM12.2833 33.3333C13.3333 33.9666 15.6333 32.9999 18.2833 30.4999C17.4166 29.5166 16.5666 28.4499 15.7666 27.3333C14.4 27.1999 13.05 26.9999 11.7666 26.7333C10.9166 30.2999 11.2333 32.7499 12.2833 33.3333ZM13.4666 23.7666L12.9833 22.9166C12.8 23.3999 12.6166 23.8833 12.5 24.3499C12.95 24.4499 13.45 24.5333 13.9666 24.6166C13.8 24.3333 13.6333 24.0499 13.4666 23.7666ZM24.3666 22.4999L25.7166 19.9999L24.3666 17.4999C23.8666 16.6166 23.3333 15.8333 22.85 15.0499C21.95 14.9999 21 14.9999 20 14.9999C19 14.9999 18.05 14.9999 17.15 15.0499C16.6666 15.8333 16.1333 16.6166 15.6333 17.4999L14.2833 19.9999L15.6333 22.4999C16.1333 23.3833 16.6666 24.1666 17.15 24.9499C18.05 24.9999 19 24.9999 20 24.9999C21 24.9999 21.95 24.9999 22.85 24.9499C23.3333 24.1666 23.8666 23.3833 24.3666 22.4999ZM20 11.2999C19.6833 11.6666 19.35 12.0499 19.0166 12.4999C19.35 12.4999 19.6666 12.4999 20 12.4999C20.3333 12.4999 20.65 12.4999 20.9833 12.4999C20.65 12.0499 20.3166 11.6666 20 11.2999ZM20 28.6999C20.3166 28.3333 20.65 27.9499 20.9833 27.4999C20.65 27.4999 20.3333 27.4999 20 27.4999C19.6666 27.4999 19.35 27.4999 19.0166 27.4999C19.35 27.9499 19.6833 28.3333 20 28.6999ZM27.7 6.66661C26.6666 6.03328 24.3666 6.99995 21.7166 9.49995C22.5833 10.4833 23.4333 11.5499 24.2333 12.6666C25.6 12.7999 26.95 12.9999 28.2333 13.2666C29.0833 9.69995 28.7666 7.24995 27.7 6.66661ZM26.5333 16.2333L27.0166 17.0833C27.2 16.5999 27.3833 16.1166 27.5 15.6499C27.05 15.5499 26.55 15.4666 26.0333 15.3833C26.2 15.6666 26.3666 15.9499 26.5333 16.2333ZM28.95 4.48328C31.4 5.88328 31.6666 9.56661 30.6333 13.8666C34.8666 15.1166 37.9166 17.1833 37.9166 19.9999C37.9166 22.8166 34.8666 24.8833 30.6333 26.1333C31.6666 30.4333 31.4 34.1166 28.95 35.5166C26.5166 36.9166 23.2 35.3166 20 32.2666C16.8 35.3166 13.4833 36.9166 11.0333 35.5166C8.59998 34.1166 8.33331 30.4333 9.36665 26.1333C5.13331 24.8833 2.08331 22.8166 2.08331 19.9999C2.08331 17.1833 5.13331 15.1166 9.36665 13.8666C8.33331 9.56661 8.59998 5.88328 11.0333 4.48328C13.4833 3.08328 16.8 4.68328 20 7.73328C23.2 4.68328 26.5166 3.08328 28.95 4.48328ZM28.4666 19.9999C29.0333 21.2499 29.5333 22.4999 29.95 23.7666C33.45 22.7166 35.4166 21.2166 35.4166 19.9999C35.4166 18.7833 33.45 17.2833 29.95 16.2333C29.5333 17.4999 29.0333 18.7499 28.4666 19.9999ZM11.5333 19.9999C10.9666 18.7499 10.4666 17.4999 10.05 16.2333C6.54998 17.2833 4.58331 18.7833 4.58331 19.9999C4.58331 21.2166 6.54998 22.7166 10.05 23.7666C10.4666 22.4999 10.9666 21.2499 11.5333 19.9999ZM26.5333 23.7666C26.3666 24.0499 26.2 24.3333 26.0333 24.6166C26.55 24.5333 27.05 24.4499 27.5 24.3499C27.3833 23.8833 27.2 23.3999 27.0166 22.9166L26.5333 23.7666ZM21.7166 30.4999C24.3666 32.9999 26.6666 33.9666 27.7 33.3333C28.7666 32.7499 29.0833 30.2999 28.2333 26.7333C26.95 26.9999 25.6 27.1999 24.2333 27.3333C23.4333 28.4499 22.5833 29.5166 21.7166 30.4999ZM13.4666 16.2333C13.6333 15.9499 13.8 15.6666 13.9666 15.3833C13.45 15.4666 12.95 15.5499 12.5 15.6499C12.6166 16.1166 12.8 16.5999 12.9833 17.0833L13.4666 16.2333ZM18.2833 9.49995C15.6333 6.99995 13.3333 6.03328 12.2833 6.66661C11.2333 7.24995 10.9166 9.69995 11.7666 13.2666C13.05 12.9999 14.4 12.7999 15.7666 12.6666C16.5666 11.5499 17.4166 10.4833 18.2833 9.49995Z" fill="#E0115F"/>
</svg>
